<?xml version="1.0" encoding="UTF-8" standalone="no"?>
<svg
   xmlns:dc="http://purl.org/dc/elements/1.1/"
   xmlns:cc="http://creativecommons.org/ns#"
   xmlns:rdf="http://www.w3.org/1999/02/22-rdf-syntax-ns#"
   xmlns:svg="http://www.w3.org/2000/svg"
   xmlns="http://www.w3.org/2000/svg"
   xmlns:xlink="http://www.w3.org/1999/xlink"
   version="1.1"
   id="Capa_1"
   x="0px"
   y="0px"
   width="80"
   height="44.755524"
   viewBox="0 0 80.000003 44.755525"
   enable-background="new 0 0 283.464 340.158"
   xml:space="preserve"><metadata
   id="metadata459"><rdf:RDF><cc:Work
       rdf:about=""><dc:format>image/svg+xml</dc:format><dc:type
         rdf:resource="http://purl.org/dc/dcmitype/StillImage" /><dc:title></dc:title></cc:Work></rdf:RDF></metadata><defs
   id="defs457">
	
	

		
		
		
		
	
		
		
	
	
	

		
		
		
		
	
		
		
		
			
		
			
		
			
		
			
		
		
		
		
			
		
		
			
		
			
		
			
		
			
		
			
		
			
		
			
		
			
		
			
		
			
		
			
		
		
		
		
		
			
		
			
		
		
		
		
			
		
			
		
			
		
		
		
		
		
	</defs>
<symbol
   transform="translate(-0.41982179,-294.79792)"
   id="New_Symbol_2"
   viewBox="-3.649 -3.46 7.299 6.92">
	<path
   style="fill:#be202e"
   d="M 0,-3.46 C 2.016,-3.46 3.649,-1.911 3.649,0 3.649,1.911 2.016,3.46 0,3.46 -2.016,3.46 -3.649,1.911 -3.649,0 -3.649,-1.911 -2.016,-3.46 0,-3.46 Z"
   id="path2" />
	<path
   style="fill:#ffffff"
   d="m 1.33,0.06 c 0.585,0 1.06,0.452 1.06,1.011 0,0.558 -0.475,1.01 -1.06,1.01 C 0.745,2.081 0.27,1.629 0.27,1.071 0.271,0.512 0.745,0.06 1.33,0.06 Z"
   id="path4" />
</symbol>
<symbol
   transform="translate(-0.41982179,-294.79792)"
   id="Nuevo_símbolo_5"
   viewBox="-3.649 -3.46 7.299 6.92">
	<path
   d="M 0,-3.46 C 2.016,-3.46 3.649,-1.911 3.649,0 3.649,1.911 2.016,3.46 0,3.46 -2.016,3.46 -3.649,1.911 -3.649,0 -3.649,-1.911 -2.016,-3.46 0,-3.46 Z"
   id="path7" />
	<path
   style="fill:#ffffff"
   d="m 1.33,0.06 c 0.585,0 1.06,0.452 1.06,1.011 0,0.558 -0.475,1.01 -1.06,1.01 C 0.745,2.081 0.27,1.629 0.27,1.071 0.271,0.512 0.745,0.06 1.33,0.06 Z"
   id="path9" />
</symbol>
<symbol
   transform="translate(-0.41982179,-294.79792)"
   id="Nuevo_símbolo_6"
   viewBox="-1.5 -3.38 3 6.76">
	<path
   style="fill:#ffffff"
   d="M 0,-3.38 C 0.829,-3.38 1.5,-1.867 1.5,0 1.5,1.867 0.829,3.38 0,3.38 -0.829,3.38 -1.5,1.867 -1.5,0 -1.5,-1.867 -0.829,-3.38 0,-3.38 Z"
   id="path12" />
</symbol>
<symbol
   transform="translate(-0.41982179,-294.79792)"
   id="Nuevo_símbolo_7"
   viewBox="-4.728 -3.497 9.455 6.994">
	<path
   style="fill:none;stroke:#000000;stroke-width:0.5;stroke-miterlimit:10"
   stroke-miterlimit="10"
   d="m 4.478,-2.661 c 0,-0.324 -0.264,-0.586 -0.588,-0.586 h -7.78 c -0.326,0 -0.588,0.262 -0.588,0.586 V 2.66 c 0,0.325 0.262,0.587 0.588,0.587 h 7.78 c 0.324,0 0.588,-0.262 0.588,-0.587 z"
   id="path15" />
	<path
   style="fill:none;stroke:#000000;stroke-width:0.5;stroke-miterlimit:10"
   stroke-miterlimit="10"
   d="m 4.476,2.48 v -5.142 c 0,-0.324 -0.262,-0.586 -0.586,-0.586 H 3.177 l -3.271,2.389 z"
   id="path17" />
	<path
   style="fill:none;stroke:#000000;stroke-width:0.5;stroke-miterlimit:10"
   stroke-miterlimit="10"
   d="m -4.478,2.48 v -5.142 c 0,-0.324 0.262,-0.586 0.586,-0.586 h 0.713 l 3.271,2.389 z"
   id="path19" />
	<path
   d="M 4.476,2.66 V -2.661 C 4.476,-2.719 4.47,-2.774 4.453,-2.825 4.38,-3.07 4.157,-3.247 3.89,-3.247 H 3.458 V 2.95 L 3.483,2.97 3.862,3.247 H 3.89 c 0.324,0 0.586,-0.262 0.586,-0.587 z"
   id="path21" />
	<path
   d="M 3.89,3.247 H 3.862 L 3.483,2.97 3.458,2.95 0.03,0.448 -3.458,2.995 -3.804,3.247 H -3.89 c -0.326,0 -0.588,-0.262 -0.588,-0.587 V 2.343 -2.661 c 0,-0.058 0.01,-0.113 0.025,-0.164 0.069,-0.245 0.296,-0.422 0.563,-0.422 h 0.432 V 1.598 L -0.927,-0.25 -0.095,-0.858 0.06,-0.971 1.017,-0.272 3.458,1.51 3.483,1.531 4.475,2.255 V 2.66 C 4.476,2.985 4.214,3.247 3.89,3.247 Z"
   id="path23" />
</symbol>
<use
   xlink:href="#Nuevo_símbolo_5"
   width="7.2989998"
   height="6.9200001"
   x="-3.6489999"
   y="-3.46"
   transform="matrix(0.2289,0,0,-0.2289,137.34571,-139.42456)"
   overflow="visible"
   id="use130"
   style="overflow:visible" /><use
   xlink:href="#Nuevo_símbolo_5"
   width="7.2989998"
   height="6.9200001"
   x="-3.6489999"
   y="-3.46"
   transform="matrix(0.2289,0,0,-0.2289,106.53511,-125.04276)"
   overflow="visible"
   id="use136"
   style="overflow:visible" /><use
   xlink:href="#Nuevo_símbolo_5"
   width="7.2989998"
   height="6.9200001"
   id="XMLID_86_"
   x="-3.6489999"
   y="-3.46"
   transform="matrix(0.2289,0,0,-0.2289,142.74801,-127.61986)"
   overflow="visible"
   style="overflow:visible" /><use
   xlink:href="#Nuevo_símbolo_5"
   width="7.2989998"
   height="6.9200001"
   id="XMLID_85_"
   x="-3.6489999"
   y="-3.46"
   transform="matrix(0.2289,0,0,-0.2289,130.14641,-121.49976)"
   overflow="visible"
   style="overflow:visible" /><use
   xlink:href="#Nuevo_símbolo_5"
   width="7.2989998"
   height="6.9200001"
   x="-3.6489999"
   y="-3.46"
   transform="matrix(0.2289,0,0,-0.2289,157.76361,-129.94796)"
   overflow="visible"
   id="use140"
   style="overflow:visible" /><use
   xlink:href="#Nuevo_símbolo_5"
   width="7.2989998"
   height="6.9200001"
   x="-3.6489999"
   y="-3.46"
   transform="matrix(0.2289,0,0,-0.2289,149.59761,-133.58276)"
   overflow="visible"
   id="use142"
   style="overflow:visible" /><use
   xlink:href="#Nuevo_símbolo_5"
   width="7.2989998"
   height="6.9200001"
   x="-3.6489999"
   y="-3.46"
   transform="matrix(0.2289,0,0,-0.2289,126.90421,-153.24876)"
   overflow="visible"
   id="use144"
   style="overflow:visible" /><use
   xlink:href="#Nuevo_símbolo_5"
   width="7.2989998"
   height="6.9200001"
   x="-3.6489999"
   y="-3.46"
   transform="matrix(0.2289,0,0,-0.2289,136.52141,-149.99486)"
   overflow="visible"
   id="use146"
   style="overflow:visible" /><use
   xlink:href="#Nuevo_símbolo_5"
   width="7.2989998"
   height="6.9200001"
   x="-3.6489999"
   y="-3.46"
   transform="matrix(0.2289,0,0,-0.2289,143.56051,-145.19116)"
   overflow="visible"
   id="use164"
   style="overflow:visible" /><use
   xlink:href="#Nuevo_símbolo_5"
   width="7.2989998"
   height="6.9200001"
   x="-3.6489999"
   y="-3.46"
   transform="matrix(0.2289,0,0,-0.2289,119.33001,-135.05346)"
   overflow="visible"
   id="use220"
   style="overflow:visible" /><use
   xlink:href="#Nuevo_símbolo_5"
   width="7.2989998"
   height="6.9200001"
   x="-3.6489999"
   y="-3.46"
   transform="matrix(0.2289,0,0,-0.2289,128.95701,-131.05156)"
   overflow="visible"
   id="use222"
   style="overflow:visible" />
<g
   id="g2339"
   transform="matrix(0.80304003,0,0,0.7721818,-71.993887,-23.033704)"><g
     id="g381">
			<path
   id="path365"
   d="m 100.613,43.189 c 1.534,-0.705 2.863,-0.683 3.974,0.072 1.003,0.903 1.916,2.257 2.749,4.068 l 0.048,0.104 c 0.557,1.212 1.152,3.139 1.784,5.786 4.093,-1.778 6.229,-2.46 6.414,-2.053 l 0.188,0.407 c 0.064,0.143 0.025,0.243 -0.117,0.308 l -1.882,0.865 c -1.068,0.49 -2.556,1.129 -4.448,1.917 0.748,8.797 1.326,14.198 1.739,16.214 -0.158,0.242 -0.341,0.412 -0.534,0.5 l -0.104,0.049 c -0.54,0.25 -0.98,0.2 -1.332,-0.153 l -0.236,-0.518 c 0.027,-1.773 -0.413,-3.644 -1.323,-5.616 l -0.583,-1.265 c -0.147,-0.325 -0.274,-0.689 -0.373,-1.092 -0.915,-1.987 -2.43,-3.623 -4.537,-4.905 -1.366,0.381 -3.413,1.075 -6.147,2.076 -0.084,2.639 0.086,5.858 0.498,9.663 l -0.158,0.204 -0.408,0.187 c -0.11,0.049 -0.264,-0.005 -0.463,-0.169 L 95.22,69.523 c -0.393,-0.848 -0.728,-3.7 -1.009,-8.539 0.072,-0.033 0.088,-0.253 0.062,-0.666 -1.802,0.252 -3.261,0.121 -4.366,-0.403 l -0.243,-0.529 c -0.136,-0.297 0.854,-1.007 2.963,-2.123 l 1.359,-0.625 0.573,-0.137 c 0.38,-1.971 0.985,-4.239 1.815,-6.805 1.3,-3.347 2.358,-5.268 3.189,-5.775 0.527,-0.407 0.879,-0.654 1.05,-0.732 z m -8.511,15.718 c 0.109,0.242 0.798,0.264 2.053,0.062 l 0.21,-0.101 c 0.009,-0.533 -0.011,-0.858 -0.067,-0.975 l -0.05,-0.104 -1.464,0.671 z m 4.029,-1.722 -0.144,1.073 0.144,0.313 3.82,-1.376 0.104,-0.05 -0.05,-0.103 c -1.154,-0.117 -2.447,-0.067 -3.874,0.143 z m 0.2,-1.239 c 1.63,-0.41 3.616,-0.308 5.978,0.297 0.49,-0.226 0.755,-0.304 0.787,-0.231 0.062,-0.029 0.077,-0.078 0.045,-0.15 0.507,-0.148 0.908,-0.292 1.205,-0.429 0.37,-0.172 0.667,-0.346 0.898,-0.539 0.484,-0.139 0.95,-0.309 1.402,-0.518 l 0.845,-0.387 c -0.452,-1.888 -0.722,-3.204 -0.811,-3.953 -0.028,-0.06 -0.078,-0.077 -0.148,-0.043 l -0.76,-2.202 c -1.321,-2.88 -2.715,-4.058 -4.168,-3.541 -1.273,0.584 -2.438,2.009 -3.497,4.273 -0.086,0.038 -0.49,1.282 -1.206,3.727 l -0.5,2.77 c -0.132,0.06 -0.16,0.368 -0.07,0.926 z m 7.486,1.123 c 1.999,1.386 3.447,3.048 4.339,4.993 l 0.104,-0.05 c -0.363,-4.102 -0.589,-6.243 -0.671,-6.426 l -0.05,-0.104 c -0.893,0.406 -2.042,0.854 -3.458,1.332 -0.105,0.139 -0.194,0.222 -0.264,0.255 z" />
			<path
   id="path367"
   d="m 114.41,52.279 0.852,-0.369 c 0.127,-0.033 0.212,0 0.259,0.109 l 0.244,0.557 c 0.088,0.204 -0.051,3.038 -0.418,8.506 l 0.038,0.092 c 2.395,-5.251 4.458,-8.257 6.192,-9.006 1.559,-0.678 2.61,-0.391 3.15,0.854 l 0.083,0.187 c 0.869,2.01 1.171,5.021 0.901,9.041 0.104,1.563 0.088,2.382 -0.044,2.46 l -0.555,0.243 c -0.597,0.165 -0.997,0.005 -1.201,-0.48 l -0.082,-0.186 c 0.054,-3.816 -0.022,-6.811 -0.226,-8.997 -0.072,-0.484 -0.173,-0.886 -0.309,-1.201 -0.204,-0.473 -0.447,-0.699 -0.727,-0.682 -2.031,1.404 -4.327,5.423 -6.877,12.068 0.078,0.181 -0.131,0.792 -0.639,1.833 l -0.754,0.325 c -0.522,-0.016 -0.86,-0.205 -1.013,-0.557 l -0.038,-0.093 c -0.038,-0.094 0.164,-3.887 0.627,-11.37 0.03,-1.82 0.211,-2.932 0.537,-3.334 z" />
			<path
   id="path369"
   d="m 127.469,32.249 c 0.323,-0.138 0.583,-0.098 0.78,0.104 l 0.193,0.463 c 0.121,1.277 0.297,6.033 0.518,14.271 4.563,-1.036 8.55,-1.829 11.957,-2.384 0.044,0.104 0.15,0.208 0.325,0.313 l 0.149,0.357 c 0.05,0.122 0.018,0.204 -0.093,0.249 l -0.799,0.329 c -0.413,0.172 -4.263,1.136 -11.55,2.886 l 0.258,7.355 c -0.011,3.418 -0.188,5.831 -0.539,7.245 l -0.44,0.182 c -0.123,0.049 -0.205,0.016 -0.253,-0.104 -0.426,-1.025 -0.59,-2.582 -0.497,-4.674 0.049,-2.896 -0.044,-6.133 -0.28,-9.718 l -0.095,0.04 c -1.011,0.423 -2.983,0.704 -5.911,0.841 -0.304,-0.236 -0.496,-0.446 -0.567,-0.627 l -0.192,-0.463 c -0.027,-0.126 0.011,-0.214 0.104,-0.252 l 0.44,-0.182 c 2.372,-0.27 4.458,-0.6 6.271,-0.99 -0.293,-6.883 -0.39,-11.887 -0.309,-15.014 z" />
			<path
   id="path371"
   d="m 139.075,43.833 0.583,-0.231 c 0.639,-0.252 1.377,-0.208 2.218,0.138 l 0.308,0.776 c 0.04,0.094 -0.021,0.237 -0.181,0.419 l -0.396,0.16 -1.664,0.083 c -0.671,0.269 -1.76,1.233 -3.28,2.891 l 0.044,0.104 c 0.717,-0.436 1.608,-0.865 2.676,-1.289 2.56,-1.024 4.569,-0.804 6.034,0.656 0.373,0.357 0.616,0.676 0.727,0.958 l 0.153,0.384 c 1.108,2.77 -0.804,5.94 -5.725,9.524 -0.31,0.205 -0.678,0.396 -1.119,0.573 l -1.772,0.705 c -2.541,0.617 -4.205,-0.039 -4.977,-1.977 l -0.27,-0.684 c -0.962,-2.405 -0.226,-5.571 2.213,-9.496 1.559,-1.904 3.033,-3.138 4.428,-3.694 z m -1.967,5.875 c -1.045,0.352 -1.634,0.472 -1.784,0.362 -1.386,3.144 -1.801,5.429 -1.226,6.855 l 0.076,0.193 c 0.455,1.15 1.581,1.492 3.363,1.029 l 0.387,-0.154 c 2.328,-0.932 4.476,-3.034 6.435,-6.315 0.463,-1.134 0.556,-2.042 0.291,-2.708 -1.044,-1.327 -2.658,-1.558 -4.827,-0.694 -0.021,-0.055 -0.061,-0.071 -0.115,-0.05 -0.711,0.353 -1.576,0.842 -2.6,1.482 z" />
			<path
   id="path373"
   d="m 154.131,35.618 c -0.082,-0.213 -0.886,-0.197 -2.417,0.066 l -0.037,-0.099 c 1.844,-1.48 2.575,-2.714 2.202,-3.705 l -0.039,-0.099 c -0.386,-1.013 -1.229,-1.361 -2.521,-1.053 -0.305,0.117 -0.667,0.287 -1.093,0.512 -1.552,1.306 -2.059,2.67 -1.519,4.092 l 0.103,0.274 -0.275,0.105 c -0.599,0.231 -1.127,0.143 -1.582,-0.253 l -0.067,-0.182 c -0.198,-2.115 0.827,-3.705 3.061,-4.773 l 0.749,-0.281 c -0.187,-0.495 -0.869,-0.523 -2.041,-0.078 l -0.377,0.143 c -2.466,1.735 -3.358,3.497 -2.681,5.275 0.084,0.215 0.221,0.484 0.414,0.792 0.793,0.837 1.762,1.041 2.891,0.611 l 0.925,-0.352 c 0.725,0.342 1.992,0.319 3.803,-0.066 0.452,-0.292 0.651,-0.507 0.594,-0.65 z m -3.991,-0.715 -0.083,0.033 -0.177,-0.467 c 0.437,-1.372 1.069,-2.214 1.904,-2.528 0.26,-0.06 0.42,-0.017 0.48,0.138 l 0.07,0.192 c -0.113,0.568 -0.846,1.449 -2.194,2.632 z" />
			<path
   id="path375"
   d="m 161.349,35.459 0.595,-0.215 c 0.643,-0.231 1.382,-0.16 2.212,0.215 l 0.281,0.787 c 0.032,0.1 -0.028,0.237 -0.193,0.414 l -0.399,0.143 -1.664,0.022 c -0.677,0.242 -1.807,1.167 -3.381,2.773 l 0.038,0.111 c 0.727,-0.408 1.636,-0.81 2.721,-1.194 2.594,-0.931 4.597,-0.645 6.007,0.863 0.361,0.375 0.594,0.7 0.693,0.981 l 0.137,0.385 c 1.007,2.802 -1.006,5.913 -6.05,9.321 -0.313,0.191 -0.692,0.374 -1.133,0.533 l -1.796,0.645 c -2.565,0.528 -4.202,-0.188 -4.905,-2.153 l -0.248,-0.695 c -0.874,-2.438 -0.029,-5.576 2.542,-9.414 1.614,-1.837 3.126,-3.015 4.543,-3.522 z m -2.17,5.803 c -1.057,0.314 -1.649,0.417 -1.794,0.303 -1.497,3.094 -1.987,5.361 -1.465,6.81 l 0.072,0.193 c 0.418,1.161 1.525,1.547 3.324,1.145 l 0.387,-0.139 c 2.36,-0.847 4.572,-2.878 6.653,-6.087 0.503,-1.118 0.63,-2.021 0.387,-2.698 -1.003,-1.365 -2.604,-1.652 -4.8,-0.864 -0.024,-0.056 -0.061,-0.072 -0.115,-0.056 -0.727,0.324 -1.608,0.788 -2.649,1.393 z" />
			<path
   id="path377"
   d="m 173.648,32.377 c 0.088,-0.028 0.248,0.054 0.479,0.247 l 0.175,0.54 c 0.085,0.242 -0.7,0.71 -2.345,1.393 -1.833,1.558 -2.614,2.753 -2.341,3.584 0.889,0.215 2.562,0.298 5.021,0.248 2.474,0.056 4.319,0.484 5.544,1.283 0.949,0.617 1.517,1.206 1.698,1.756 l 0.301,0.902 c 0.451,1.355 -0.048,2.787 -1.486,4.306 -0.836,0.887 -2.554,1.757 -5.152,2.621 l -5.068,1.685 c -0.141,0.044 -0.275,0.061 -0.41,0.038 -0.092,0.094 -0.174,0.154 -0.241,0.177 -0.303,0.099 -0.766,0.22 -1.388,0.363 -0.34,0.116 -0.544,0.214 -0.605,0.297 -0.876,0.226 -1.607,0.441 -2.202,0.639 l -2.345,0.782 c -4.511,1.382 -6.8,1.966 -6.867,1.761 l -0.146,-0.44 c -0.023,-0.127 0.016,-0.209 0.12,-0.242 0.243,-0.082 0.775,-0.292 1.592,-0.638 0.562,-0.115 0.902,-0.193 1.024,-0.231 l 1.123,-0.59 c 5.075,-1.75 8.479,-2.912 10.211,-3.485 0.353,-0.115 1.098,-0.396 2.236,-0.836 l 0.396,-0.038 c 4.378,-1.454 6.794,-2.957 7.257,-4.515 0.288,-0.958 0.38,-1.592 0.276,-1.91 -0.525,-0.921 -1.839,-1.553 -3.953,-1.89 -4.223,-0.109 -6.685,-0.23 -7.374,-0.374 -0.516,-0.364 -0.869,-0.814 -1.051,-1.359 -0.54,-1.63 0.546,-3.403 3.253,-5.319 z" />
			<path
   id="path379"
   d="m 149.918,55.857 0.464,-0.716 0.178,-0.544 -0.014,-0.018 c 0.757,-2.218 1.255,-4.497 1.514,-6.849 -0.07,-4.024 -0.379,-6.458 -0.924,-7.294 -0.171,-0.264 -0.667,-0.304 -1.475,-0.126 L 149,40.458 c 0.413,2.516 0.618,4.701 0.612,6.563 -0.035,1.795 -0.402,3.843 -1.096,6.128 -0.145,0.578 -0.313,1.073 -0.48,1.481 -0.006,0.016 -0.01,0.038 -0.015,0.055 0,0 0,0 -0.008,0 -0.367,0.875 -0.728,1.359 -0.842,1.497 -1.92,3.298 -4.464,5.296 -7.624,5.995 l -0.937,0.209 c -3.352,0.347 -5.306,0.098 -5.863,-0.753 -0.148,-0.233 -0.19,-0.459 -0.132,-0.689 0,-0.005 0.006,-0.01 0.012,-0.017 l -0.522,-0.236 c 0,0 -0.469,0.092 -1.411,0.275 -0.363,0.071 -0.484,0.208 -0.499,0.352 0.041,0.16 0.114,0.319 0.214,0.473 0.186,0.292 0.424,0.568 0.699,0.826 2.168,1.188 5.187,1.355 9.056,0.497 l 0.419,-0.094 c 2.862,-0.634 5.418,-2.119 7.668,-4.459 0.822,-1.417 1.389,-2.318 1.696,-2.704 z" />
		</g><g
     id="g407">
			<g
   id="g389">
				<path
   id="path383"
   d="m 101.169,83.263 c -0.082,-0.309 -0.551,-0.555 -1.414,-0.744 -1.092,-0.236 -1.846,-0.45 -2.259,-0.66 -0.418,-0.204 -0.672,-0.489 -0.771,-0.854 -0.251,-0.941 0.012,-1.843 0.789,-2.714 0.775,-0.869 1.459,-1.386 2.051,-1.546 0.382,-0.105 0.681,-0.11 0.889,-0.023 0.209,0.089 0.358,0.292 0.44,0.617 0.038,0.15 0.012,0.287 -0.09,0.426 -0.098,0.136 -0.18,0.214 -0.251,0.235 -0.049,0.016 -0.166,0.005 -0.331,-0.021 -0.17,-0.029 -0.275,-0.033 -0.325,-0.022 -0.235,0.06 -0.667,0.364 -1.3,0.903 -0.626,0.539 -0.886,1.024 -0.77,1.458 0.07,0.264 0.264,0.469 0.572,0.617 0.313,0.148 0.843,0.286 1.585,0.424 0.602,0.11 1.103,0.269 1.497,0.473 0.398,0.203 0.646,0.501 0.756,0.896 0.191,0.723 -0.154,1.422 -1.041,2.098 -0.886,0.678 -1.784,1.134 -2.688,1.376 -0.763,0.206 -1.215,0.05 -1.354,-0.473 -0.049,-0.182 0,-0.337 0.154,-0.469 0.148,-0.131 0.313,-0.219 0.484,-0.263 0.072,-0.023 0.211,-0.034 0.424,-0.041 0.209,-0.004 0.342,-0.016 0.402,-0.032 0.522,-0.137 1.063,-0.379 1.613,-0.716 0.552,-0.328 0.866,-0.649 0.938,-0.945 z" />
				<path
   id="path385"
   d="m 103.932,74.102 c -0.099,0.028 -0.203,-0.061 -0.314,-0.259 -0.038,-0.059 -0.082,-0.127 -0.137,-0.198 -0.21,-0.275 -0.346,-0.522 -0.407,-0.749 -0.049,-0.188 0.013,-0.413 0.181,-0.666 0.172,-0.254 0.398,-0.419 0.666,-0.496 0.14,-0.038 0.305,-0.022 0.502,0.04 0.198,0.062 0.309,0.137 0.337,0.242 0.043,0.153 0.053,0.435 0.038,0.836 -0.018,0.402 -0.132,0.706 -0.353,0.903 -0.203,0.198 -0.381,0.313 -0.513,0.347 z m 1.19,8.158 c 0.095,0.358 0.253,0.748 0.474,1.175 0.044,0.082 0.07,0.147 0.082,0.201 0.023,0.083 -0.026,0.215 -0.143,0.392 -0.122,0.176 -0.271,0.286 -0.441,0.335 -0.457,0.121 -0.798,-0.237 -1.023,-1.079 -0.231,-0.87 -0.423,-2.291 -0.566,-4.266 -0.056,-0.689 -0.101,-1.106 -0.139,-1.261 -0.082,-0.297 -0.094,-0.568 -0.038,-0.803 0.057,-0.237 0.177,-0.386 0.376,-0.44 0.241,-0.066 0.443,-0.057 0.615,0.021 0.171,0.077 0.274,0.187 0.315,0.33 0.038,0.144 0.053,0.336 0.049,0.584 -0.023,1.343 0,2.291 0.06,2.852 0.054,0.568 0.181,1.218 0.379,1.959 z" />
				<path
   id="path387"
   d="m 111.746,76.331 c -0.249,0.066 -0.469,0.299 -0.677,0.694 -0.206,0.397 -0.452,1.239 -0.75,2.516 -0.38,1.711 -0.661,2.703 -0.83,2.968 -0.172,0.269 -0.337,0.424 -0.486,0.461 -0.556,0.148 -0.907,-0.044 -1.051,-0.583 -0.062,-0.226 -0.11,-0.556 -0.144,-0.992 -0.121,-1.492 -0.396,-3.034 -0.819,-4.613 -0.049,-0.182 -0.029,-0.403 0.071,-0.66 0.094,-0.259 0.208,-0.41 0.346,-0.447 0.249,-0.065 0.44,-0.038 0.584,0.089 0.144,0.121 0.276,0.412 0.402,0.869 0.126,0.479 0.247,1.497 0.364,3.06 0.037,0.518 0.07,0.843 0.108,0.974 0.023,0.078 0.05,0.111 0.088,0.101 0.071,-0.017 0.249,-0.672 0.53,-1.956 0.279,-1.305 0.582,-2.25 0.902,-2.834 0.319,-0.584 0.744,-0.953 1.278,-1.097 0.423,-0.116 0.819,-0.01 1.192,0.303 0.37,0.313 0.756,0.969 1.152,1.96 0.446,1.128 0.76,1.822 0.939,2.082 0.183,0.258 0.393,0.351 0.623,0.292 0.148,-0.04 0.319,-0.139 0.513,-0.304 0.032,-0.028 0.061,-0.044 0.076,-0.049 0.205,-0.055 0.335,0.038 0.401,0.27 0.057,0.209 -0.021,0.468 -0.24,0.776 -0.217,0.308 -0.519,0.513 -0.915,0.616 -0.401,0.111 -0.755,0.033 -1.057,-0.231 -0.303,-0.258 -0.705,-1.062 -1.206,-2.41 -0.511,-1.348 -0.971,-1.964 -1.394,-1.855 z" />
			</g>
			<g
   id="g405">
				<path
   id="path391"
   d="m 118.625,68.206 c 0.513,-0.137 0.86,0.121 1.037,0.776 0.154,0.584 0.222,2.06 0.187,4.421 -0.021,1.487 0.084,3.095 0.32,4.823 0.23,1.728 0.478,3.067 0.73,4.013 0.316,1.179 0.706,2.324 1.168,3.446 0.088,0.215 0.143,0.37 0.173,0.468 0.092,0.358 0.054,0.695 -0.117,1.019 -0.177,0.319 -0.397,0.518 -0.667,0.589 -0.38,0.1 -0.703,-0.066 -0.974,-0.496 -0.27,-0.429 -0.55,-1.172 -0.83,-2.219 -0.641,-2.389 -1.146,-5.423 -1.521,-9.111 -0.375,-3.684 -0.469,-5.868 -0.291,-6.563 0.17,-0.682 0.436,-1.073 0.785,-1.166 z" />
				<path
   id="path393"
   d="m 129.242,67.699 c -0.024,0.021 -0.056,0.054 -0.089,0.094 -0.044,0.045 -0.1,0.094 -0.166,0.148 -0.418,0.347 -1.228,1.299 -2.422,2.853 -0.496,0.642 -0.869,1.111 -1.135,1.403 l -0.203,0.215 c -0.188,0.049 -0.373,0.005 -0.561,-0.137 -0.193,-0.139 -0.309,-0.304 -0.357,-0.492 -0.101,-0.362 0.291,-1.106 1.161,-2.222 0.868,-1.118 1.679,-2.043 2.421,-2.758 0.282,-0.276 0.479,-0.502 0.611,-0.678 0.094,-0.132 0.148,-0.187 0.16,-0.17 0.121,-0.033 0.298,0.059 0.529,0.28 0.23,0.219 0.363,0.402 0.401,0.544 0.022,0.089 -0.012,0.242 -0.094,0.463 -0.098,0.22 -0.174,0.375 -0.256,0.457 z m -1.834,15.02 c 0.143,0.544 0.385,1.132 0.715,1.766 0.063,0.122 0.106,0.226 0.127,0.308 0.034,0.128 -0.038,0.325 -0.22,0.595 -0.183,0.264 -0.402,0.436 -0.667,0.507 -0.692,0.188 -1.205,-0.358 -1.547,-1.624 -0.352,-1.312 -0.637,-3.463 -0.854,-6.448 -0.081,-1.04 -0.149,-1.674 -0.208,-1.904 -0.122,-0.452 -0.144,-0.854 -0.062,-1.217 0.082,-0.362 0.27,-0.583 0.569,-0.661 0.361,-0.1 0.67,-0.087 0.93,0.033 0.259,0.117 0.412,0.287 0.473,0.501 0.062,0.217 0.082,0.513 0.077,0.888 -0.033,2.026 0,3.462 0.087,4.309 0.083,0.843 0.282,1.822 0.58,2.947 z" />
				<path
   id="path395"
   d="m 138.145,73.315 c -0.661,0.192 -1.554,2.537 -2.683,7.035 -0.381,1.514 -0.616,2.352 -0.705,2.5 -0.087,0.148 -0.285,0.313 -0.583,0.494 -0.297,0.182 -0.557,0.298 -0.77,0.353 -0.48,0.127 -0.965,-0.739 -1.465,-2.599 -0.283,-1.045 -0.568,-3.006 -0.855,-5.875 -0.115,-1.161 -0.229,-1.982 -0.361,-2.461 -0.129,-0.468 0.021,-0.76 0.439,-0.875 0.793,-0.214 1.337,0.254 1.647,1.394 0.141,0.534 0.29,1.617 0.444,3.253 0.171,1.867 0.304,2.99 0.401,3.38 0.325,-0.544 0.728,-1.657 1.196,-3.335 0.681,-2.307 1.237,-3.804 1.669,-4.489 0.429,-0.682 0.951,-1.111 1.567,-1.275 0.463,-0.128 0.914,0.087 1.354,0.632 0.441,0.552 1.002,1.982 1.684,4.306 0.173,0.583 0.342,1.002 0.513,1.26 0.17,0.258 0.275,0.385 0.318,0.376 0.336,-0.089 0.756,-1.426 1.267,-4.008 0.276,-1.366 0.616,-2.439 1.015,-3.221 0.395,-0.783 0.942,-1.262 1.633,-1.449 0.58,-0.154 1.082,0.032 1.505,0.557 0.423,0.522 0.849,1.353 1.278,2.493 0.423,1.155 0.881,2.196 1.368,3.116 0.49,0.924 1.07,1.442 1.746,1.563 0.456,0.082 0.722,0.253 0.793,0.513 0.067,0.247 -0.033,0.55 -0.309,0.908 -0.276,0.358 -0.551,0.572 -0.836,0.65 -0.572,0.153 -1.174,-0.062 -1.811,-0.639 -0.641,-0.577 -1.382,-2 -2.23,-4.261 -0.353,-0.908 -0.622,-1.546 -0.821,-1.911 -0.197,-0.367 -0.396,-0.522 -0.593,-0.473 -0.297,0.083 -0.579,0.463 -0.84,1.139 -0.258,0.683 -0.604,2.015 -1.048,4.008 -0.349,1.554 -0.646,2.604 -0.893,3.155 -0.249,0.55 -0.541,0.876 -0.883,0.965 -0.308,0.082 -0.616,0.033 -0.918,-0.15 -0.309,-0.182 -0.54,-0.434 -0.699,-0.765 -0.154,-0.33 -0.451,-1.161 -0.889,-2.498 -0.711,-2.214 -1.261,-3.469 -1.645,-3.766 z" />
				<path
   id="path397"
   d="m 154.46,62.662 c -0.147,0.038 -0.309,-0.087 -0.473,-0.391 -0.054,-0.094 -0.127,-0.192 -0.209,-0.297 -0.319,-0.413 -0.522,-0.788 -0.612,-1.134 -0.075,-0.287 0.018,-0.623 0.275,-1.008 0.26,-0.385 0.596,-0.633 1.007,-0.749 0.211,-0.055 0.463,-0.039 0.763,0.055 0.297,0.094 0.466,0.214 0.512,0.362 0.058,0.237 0.08,0.662 0.058,1.266 -0.02,0.612 -0.196,1.064 -0.525,1.366 -0.333,0.298 -0.596,0.475 -0.796,0.53 z m 1.802,12.319 c 0.143,0.547 0.386,1.135 0.715,1.768 0.063,0.123 0.104,0.226 0.127,0.308 0.033,0.128 -0.038,0.326 -0.22,0.596 -0.183,0.264 -0.402,0.436 -0.667,0.506 -0.695,0.187 -1.205,-0.358 -1.547,-1.624 -0.354,-1.311 -0.639,-3.463 -0.854,-6.447 -0.081,-1.041 -0.149,-1.673 -0.214,-1.905 -0.12,-0.452 -0.144,-0.854 -0.062,-1.216 0.084,-0.363 0.271,-0.584 0.566,-0.662 0.363,-0.099 0.674,-0.087 0.933,0.034 0.259,0.114 0.411,0.286 0.472,0.5 0.063,0.215 0.084,0.514 0.078,0.887 -0.032,2.025 0,3.463 0.087,4.311 0.09,0.843 0.282,1.829 0.586,2.944 z" />
				<path
   id="path399"
   d="m 162.647,64.252 c 0.723,-0.253 1.395,-0.506 2.021,-0.759 0.623,-0.243 1.151,-0.424 1.574,-0.535 0.542,-0.144 0.899,-0.187 1.067,-0.127 0.173,0.061 0.288,0.216 0.354,0.468 0.153,0.579 -0.165,1.003 -0.959,1.267 -1.019,0.341 -1.942,0.683 -2.787,1.035 -0.835,0.346 -1.282,0.567 -1.332,0.661 -0.048,0.093 -0.037,1.001 0.034,2.719 0.073,1.718 0.171,2.825 0.303,3.31 0.21,0.781 0.451,1.276 0.732,1.485 0.274,0.205 0.62,0.254 1.036,0.144 0.608,-0.165 1.342,-0.853 2.185,-2.064 0.319,-0.49 0.595,-0.764 0.82,-0.826 0.309,-0.083 0.506,0.038 0.594,0.37 0.139,0.511 -0.174,1.309 -0.945,2.389 -0.772,1.079 -1.669,1.761 -2.703,2.037 -1.724,0.463 -2.866,-0.318 -3.409,-2.356 -0.197,-0.732 -0.323,-1.921 -0.38,-3.557 -0.061,-1.628 -0.134,-2.591 -0.216,-2.9 -0.026,-0.105 -0.126,-0.138 -0.297,-0.094 l -1.085,0.396 c -0.912,0.242 -1.465,0.007 -1.661,-0.721 -0.111,-0.413 0.044,-0.678 0.461,-0.789 l 2.203,-0.588 c 0.148,-0.038 0.265,-0.144 0.341,-0.309 0.079,-0.165 0.12,-0.666 0.139,-1.497 0.011,-0.831 0.005,-1.652 -0.027,-2.45 -0.026,-0.794 0.202,-1.259 0.704,-1.392 0.309,-0.084 0.573,-0.04 0.805,0.125 0.231,0.172 0.367,0.348 0.417,0.529 0.028,0.099 0.032,0.644 0.022,1.636 z" />
				<path
   id="path401"
   d="m 179.643,67.38 c 0.193,0.726 -0.213,1.779 -1.228,3.148 -1.014,1.373 -2.202,2.24 -3.572,2.61 -1.151,0.309 -2.126,0.203 -2.931,-0.303 -0.803,-0.511 -1.369,-1.37 -1.695,-2.582 -0.545,-2.036 -0.379,-4.162 0.506,-6.375 0.881,-2.208 2.143,-3.536 3.778,-3.969 0.532,-0.143 1.017,-0.089 1.453,0.17 0.432,0.258 0.717,0.633 0.849,1.129 0.291,1.1 0.038,2.295 -0.771,3.588 -0.81,1.294 -1.98,2.672 -3.527,4.124 -0.32,0.292 -0.437,0.59 -0.359,0.899 0.16,0.594 0.458,1.017 0.898,1.281 0.436,0.265 0.989,0.309 1.661,0.127 1.53,-0.412 2.874,-1.678 4.012,-3.804 0.173,-0.296 0.322,-0.461 0.441,-0.495 0.221,-0.065 0.386,0.089 0.485,0.452 z m -7.885,0.324 c 2.544,-2.608 3.669,-4.454 3.378,-5.549 -0.117,-0.43 -0.366,-0.588 -0.749,-0.489 -0.656,0.175 -1.267,0.853 -1.834,2.041 -0.568,1.184 -0.833,2.517 -0.795,3.997 z" />
				<path
   id="path403"
   d="m 187.571,66.515 c -0.127,-0.462 -0.835,-0.837 -2.135,-1.122 -1.648,-0.354 -2.787,-0.684 -3.414,-0.997 -0.627,-0.309 -1.02,-0.739 -1.164,-1.29 -0.378,-1.419 0.019,-2.785 1.192,-4.101 1.171,-1.316 2.206,-2.092 3.104,-2.334 0.578,-0.153 1.021,-0.166 1.338,-0.039 0.313,0.132 0.534,0.441 0.666,0.931 0.059,0.221 0.018,0.435 -0.132,0.644 -0.15,0.209 -0.275,0.325 -0.382,0.351 -0.076,0.022 -0.247,0.011 -0.501,-0.038 -0.253,-0.038 -0.417,-0.049 -0.49,-0.029 -0.357,0.095 -1.01,0.551 -1.958,1.366 -0.953,0.816 -1.338,1.549 -1.162,2.204 0.105,0.402 0.396,0.71 0.871,0.93 0.474,0.22 1.271,0.435 2.394,0.64 0.909,0.169 1.662,0.407 2.263,0.715 0.6,0.31 0.981,0.759 1.134,1.354 0.291,1.09 -0.231,2.146 -1.567,3.166 -1.34,1.018 -2.692,1.711 -4.065,2.081 -1.157,0.309 -1.838,0.071 -2.049,-0.711 -0.07,-0.269 0.009,-0.506 0.233,-0.703 0.225,-0.198 0.468,-0.331 0.731,-0.403 0.106,-0.027 0.319,-0.049 0.64,-0.054 0.313,-0.007 0.512,-0.023 0.605,-0.049 0.792,-0.21 1.602,-0.574 2.438,-1.081 0.834,-0.506 1.306,-0.979 1.41,-1.431 z" />
			</g>
		</g></g>
</svg>